<?xml version="1.0" standalone="no"?>
<!DOCTYPE svg PUBLIC "-//W3C//DTD SVG 20010904//EN"
 "http://www.w3.org/TR/2001/REC-SVG-20010904/DTD/svg10.dtd">
<svg version="1.0" xmlns="http://www.w3.org/2000/svg"
 width="50.000000pt" height="50.000000pt" viewBox="0 0 50.000000 50.000000"
 preserveAspectRatio="xMidYMid meet">

<g transform="translate(0.000000,50.000000) scale(0.100000,-0.100000)"
fill="#000000" stroke="none">
<path d="M179 457 c-48 -32 -71 -81 -64 -137 6 -46 79 -206 115 -250 l20 -25
20 25 c36 44 109 204 115 250 11 82 -55 160 -135 160 -22 0 -51 -9 -71 -23z
m132 -20 c43 -29 59 -74 47 -135 -9 -49 -86 -203 -104 -209 -14 -5 -68 80 -95
148 -21 55 -25 129 -8 160 14 27 68 59 100 59 14 0 41 -10 60 -23z"/>
<path d="M223 400 c-44 -18 -44 -85 0 -110 24 -13 30 -13 55 0 68 38 17 139
-55 110z m51 -23 c22 -16 18 -55 -6 -71 -40 -24 -80 44 -42 71 10 7 21 13 24
13 3 0 14 -6 24 -13z"/>
<path d="M108 119 c-49 -18 -47 -59 5 -81 43 -17 221 -17 264 0 51 22 54 59 7
81 -30 13 -64 15 -64 2 0 -5 12 -11 28 -14 15 -4 34 -11 42 -17 13 -9 13 -11
0 -20 -32 -22 -98 -32 -170 -27 -70 5 -130 22 -130 37 0 10 47 30 70 30 11 0
20 5 20 10 0 12 -36 12 -72 -1z"/>
</g>
</svg>
